<svg width="320" height="320" viewBox="0 0 320 320" fill="none" xmlns="http://www.w3.org/2000/svg">
  <rect width="320" height="320" fill="none" />
  <g stroke="#94a3b8" stroke-opacity="0.25" stroke-width="1.1">
    <path d="M0 20h320M0 60h320M0 100h320M0 140h320M0 180h320M0 220h320M0 260h320M0 300h320" />
    <path d="M20 0v320M60 0v320M100 0v320M140 0v320M180 0v320M220 0v320M260 0v320M300 0v320" />
  </g>
  <g stroke="#34d399" stroke-width="1.6" stroke-linecap="round" stroke-opacity="0.3">
    <path d="M20 40h40l20 20v40l-20 20H40l-20-20v-40z" />
    <path d="M140 200h40l20 20v40l-20 20h-40l-20-20v-40z" />
  </g>
  <g fill="#6ee7b7" fill-opacity="0.25">
    <circle cx="240" cy="60" r="6" />
    <circle cx="80" cy="240" r="4" />
  </g>
</svg>
